HIERARCHY
ROOT root
{
	OFFSET	0	13.1	24.9
	CHANNELS 6  Xposition Yposition Zposition Xrotation Yrotation Zrotation
	JOINT spine_1
	{
		OFFSET	0	9.99999	0
		CHANNELS 3  Xrotation Yrotation Zrotation
		JOINT spine_2
		{
			OFFSET	0	112	-10
			CHANNELS 3  Xrotation Yrotation Zrotation
			JOINT spine_3
			{
				OFFSET	0	206.5	19.3
				CHANNELS 3  Xrotation Yrotation Zrotation
				JOINT spine_4
				{
					OFFSET	0	110.4	14.6
					CHANNELS 3  Xrotation Yrotation Zrotation
					JOINT neck_1
					{
						OFFSET	0	71.8	-50.3
						CHANNELS 3  Xrotation Yrotation Zrotation
						JOINT neck_2
						{
							OFFSET	0	86.2	-25.8
							CHANNELS 3  Xrotation Yrotation Zrotation
							JOINT head_ee
							{
								OFFSET	0	179.8	-8.7
								CHANNELS 3  Xrotation Yrotation Zrotation
								End Site
								{
									OFFSET	1	0	0
								}
							}
						}
					}
					JOINT left_clavicle
					{
						OFFSET	-43.2	22.4	-70.8
						CHANNELS 3  Xrotation Yrotation Zrotation
						JOINT left_shoulder
						{
							OFFSET	-93.9	-5.79999	48.7
							CHANNELS 3  Xrotation Yrotation Zrotation
							JOINT left_elbow
							{
								OFFSET	-291.4	-30.8	15.2
								CHANNELS 3  Xrotation Yrotation Zrotation
								JOINT left_lowarm_twist
								{
									OFFSET	-110.7	-3.89999	13.6
									CHANNELS 3  Xrotation Yrotation Zrotation
									JOINT left_hand
									{
										OFFSET	-110.7	-3.89999	13.6
										CHANNELS 3  Xrotation Yrotation Zrotation
										JOINT left_ee
										{
											OFFSET	-80.8	-5.10001	12.1
											CHANNELS 3  Xrotation Yrotation Zrotation
											End Site
											{
												OFFSET	1	0	0
											}
										}
									}
								}
							}
						}
					}
					JOINT right_clavicle
					{
						OFFSET	43.2	22.4	-70.8
						CHANNELS 3  Xrotation Yrotation Zrotation
						JOINT right_shoulder
						{
							OFFSET	93.9	-5.79999	48.7
							CHANNELS 3  Xrotation Yrotation Zrotation
							JOINT right_elbow
							{
								OFFSET	291.4	-30.8	15.2
								CHANNELS 3  Xrotation Yrotation Zrotation
								JOINT right_lowarm_twist
								{
									OFFSET	110.7	-3.89999	13.6
									CHANNELS 3  Xrotation Yrotation Zrotation
									JOINT right_hand
									{
										OFFSET	110.7	-3.89999	13.6
										CHANNELS 3  Xrotation Yrotation Zrotation
										JOINT right_ee
										{
											OFFSET	80.8	-5.10001	12.1
											CHANNELS 3  Xrotation Yrotation Zrotation
											End Site
											{
												OFFSET	1	0	0
											}
										}
									}
								}
							}
						}
					}
				}
			}
		}
	}
	JOINT left_hip
	{
		OFFSET	-82.8	-127.5	0.300001
		CHANNELS 3  Xrotation Yrotation Zrotation
		JOINT left_knee
		{
			OFFSET	-28.2	-396.7	2.2
			CHANNELS 3  Xrotation Yrotation Zrotation
			JOINT left_ankle
			{
				OFFSET	-11.7	-411.3	35.4
				CHANNELS 3  Xrotation Yrotation Zrotation
				JOINT left_toes
				{
					OFFSET	0	-60	-88.6
					CHANNELS 3  Xrotation Yrotation Zrotation
					JOINT left_foot_ee
					{
						OFFSET	-22.5	-16.5	-42.2
						CHANNELS 3  Xrotation Yrotation Zrotation
						End Site
						{
							OFFSET	1	0	0
						}
					}
				}
			}
		}
	}
	JOINT right_hip
	{
		OFFSET	82.8	-127.5	0.300001
		CHANNELS 3  Xrotation Yrotation Zrotation
		JOINT right_knee
		{
			OFFSET	28.2	-396.7	2.2
			CHANNELS 3  Xrotation Yrotation Zrotation
			JOINT right_ankle
			{
				OFFSET	11.7	-411.3	35.4
				CHANNELS 3  Xrotation Yrotation Zrotation
				JOINT right_toes
				{
					OFFSET	0	-60	-88.6
					CHANNELS 3  Xrotation Yrotation Zrotation
					JOINT right_foot_ee
					{
						OFFSET	22.5	-16.5	-42.2
						CHANNELS 3  Xrotation Yrotation Zrotation
						End Site
						{
							OFFSET	1	0	0
						}
					}
				}
			}
		}
	}
}
MOTION
Frames: 13
Frame Time: 0.02
652.217 689.042 -1415.57 -105.034 88.555 115.152 1.33218 -0.452329 -2.6963 1.33618 -0.279904 -2.7196 1.35015 0.233893 -2.72394 1.33985 -0.199072 -2.7267 -13.9178 5.10576 7.27562 -13.7883 5.28145 8.49227 -0.0 0.0 -0.0 8.73841 16.3923 15.8982 6.92057 -20.6967 62.9494 2.56469 -51.7848 1.24509 -56.6406 -4.86817 4.98437 -1.0696 27.0784 4.72942 -0.0 0.0 -0.0 10.5574 -16.3492 -18.9957 -12.4978 -9.38498 -50.2926 0.179726 5.08782 -0.00798497 -26.2316 1.61958 -2.90713 8.10342 -0.761577 -72.951 0.0 0.0 0.0 6.52705 15.499 -12.7579 7.53601 -0.382812 -1.09174 6.43108 -26.2553 -1.12008 7.21875 -0.0 -0.0 -0.0 0.0 -0.0 18.7322 3.51432 -6.45853 -25.0034 -0.202798 -3.80128 31.0174 -6.1456 3.99586 -38.8916 0.0 0.0 0.0 0.0 0.0 
648.917 695.757 -1415.54 -73.9762 87.3147 83.706 1.46863 -0.180449 -2.72835 1.47277 -0.00653721 -2.7343 1.47339 0.499698 -2.68829 1.46332 0.0690274 -2.73343 -15.924 5.45564 7.55657 -15.7956 6.08597 8.97997 -0.0 0.0 -0.0 9.07084 16.978 16.3826 6.99644 -20.6209 63.2228 2.57684 -51.9163 1.25464 -56.1355 -4.80644 4.96471 -1.18328 26.6135 3.90372 -0.0 0.0 -0.0 10.5599 -16.3594 -18.9984 -12.9689 -9.90897 -50.0712 0.193066 5.46325 -0.00921161 -28.2104 1.79325 -3.09199 7.88087 -3.24625 -70.9052 0.0 0.0 0.0 7.90062 15.5023 -12.3582 6.96896 -0.349029 -1.0114 5.46898 -25.4365 -0.946751 7.03961 -0.0 -0.0 -0.0 0.0 -0.0 18.3106 4.46634 -6.43187 -15.7242 -0.322049 -2.384 24.0325 -2.55986 3.22638 -39.9256 0.0 0.0 0.0 0.0 0.0 
643.967 695.988 -1415.75 -92.8145 86.5689 102.347 1.59392 -0.438074 -2.74049 1.59806 -0.262869 -2.76279 1.61112 0.246138 -2.76433 1.60051 -0.193353 -2.76852 -13.754 5.68534 8.50494 -13.5718 5.60418 9.82592 -0.0 0.0 -0.0 9.16976 17.3598 16.4979 6.96858 -20.3738 63.5132 2.61134 -52.2854 1.28186 -57.2349 -4.94101 5.00681 -1.28948 27.2594 3.59783 -0.0 0.0 -0.0 10.5742 -16.4802 -19.0033 -13.419 -10.2093 -49.4804 0.190161 5.38154 -0.00893709 -29.3557 1.89667 -3.19624 7.9099 -3.63394 -71.9534 0.0 0.0 0.0 8.51766 15.3964 -12.1115 6.89623 -0.344754 -1.00107 5.75169 -26.128 -1.00277 6.22294 -0.0 -0.0 -0.0 0.0 -0.0 18.826 3.82649 -6.05314 -14.0455 -0.31904 -2.12647 24.5418 -5.67531 3.27795 -39.7515 0.0 0.0 0.0 0.0 0.0 
641.951 696.542 -1417.47 -86.5956 85.7433 95.9311 1.64075 -0.387342 -2.79879 1.64508 -0.208536 -2.81774 1.65563 0.307485 -2.80867 1.64465 -0.139769 -2.82199 -15.4827 6.61192 8.16415 -15.3474 7.87967 9.911 -0.0 0.0 -0.0 9.59994 17.7773 17.1537 7.62842 -20.8273 64.1193 2.68491 -53.0525 1.34037 -57.3222 -4.95173 5.01004 -1.37072 27.9635 3.46199 -0.0 0.0 -0.0 10.5542 -16.2783 -19.0017 -13.6601 -10.1082 -49.3215 0.202068 5.71633 -0.0100884 -30.8618 2.03582 -3.33016 7.85546 -4.2544 -71.4051 0.0 0.0 0.0 9.29165 15.2456 -12.1754 6.54564 -0.32433 -0.951211 5.72459 -26.1932 -0.998916 6.1816 -0.0 -0.0 -0.0 0.0 -0.0 18.9891 4.5918 -6.46165 -9.51753 -0.273335 -1.43339 18.5305 -3.39901 2.55265 -38.798 0.0 0.0 0.0 0.0 0.0 
640.404 697.161 -1419.68 -83.3759 85.1628 92.3128 1.70763 -0.340387 -2.74558 1.7118 -0.165057 -2.76166 1.71994 0.336991 -2.746 1.70943 -0.100746 -2.76475 -16.2654 6.45576 8.88285 -16.0913 7.29785 10.5886 -0.0 0.0 -0.0 9.61951 17.6446 17.2054 7.43318 -20.9623 64.0714 2.7147 -53.3555 1.36422 -56.9959 -4.9117 4.99788 -1.30019 27.9285 3.83041 -0.0 0.0 -0.0 10.6243 -15.9598 -19.1752 -13.8422 -10.0762 -49.0577 0.201314 5.69513 -0.0100134 -33.7479 2.31211 -3.57644 7.77566 -6.22293 -71.5948 0.0 0.0 0.0 10.1168 15.0715 -12.1364 6.10958 -0.299354 -0.889025 4.81433 -26.4733 -0.845682 5.56748 -0.0 -0.0 -0.0 0.0 -0.0 18.0628 5.15172 -6.00599 -6.22782 -0.205862 -0.933148 16.1277 -2.61057 2.24759 -37.9431 0.0 0.0 0.0 0.0 0.0 
636.497 703.033 -1425.26 -85.7036 84.7746 94.3612 1.78743 -0.304775 -2.73813 1.79159 -0.12999 -2.75196 1.7979 0.366047 -2.73062 1.7875 -0.0696284 -2.75415 -18.2479 7.23354 10.3238 -18.0241 8.36892 12.381 -0.0 0.0 -0.0 9.4642 17.9219 16.9083 5.55978 -20.9365 63.8279 2.73621 -53.5716 1.3815 -56.6719 -4.872 4.98557 -1.01079 25.6295 4.4461 -0.0 0.0 -0.0 10.9439 -15.8305 -19.7559 -14.0174 -10.0396 -49.3426 0.205094 5.80134 -0.010392 -37.4371 2.68281 -3.87058 7.78248 -7.94251 -73.4214 0.0 0.0 0.0 10.6679 14.7996 -12.3346 5.80863 -0.282395 -0.845999 2.61475 -26.6172 -0.463567 5.51244 -0.0 -0.0 -0.0 0.0 -0.0 17.2003 5.61634 -5.91361 -4.06601 -0.145925 -0.606816 9.55129 -1.41792 1.3685 -37.6124 0.0 0.0 0.0 0.0 0.0 
631.371 704.969 -1429.08 -89.5335 84.508 97.8929 1.8548 -0.350001 -2.72197 1.8589 -0.176152 -2.73871 1.86735 0.314895 -2.72625 1.85699 -0.119451 -2.74176 -17.9994 7.71921 12.2593 -17.6461 8.20222 14.3268 -0.0 0.0 -0.0 9.34966 17.2078 16.8172 4.97144 -21.1319 63.8889 2.73468 -53.5563 1.38027 -55.1331 -4.68444 4.92408 -0.327191 20.4865 6.30544 -0.0 0.0 -0.0 11.1456 -16.375 -20.0144 -14.1903 -9.86035 -48.8729 0.20489 5.79562 -0.0103714 -40.2739 2.98034 -4.08026 7.68324 -8.76075 -71.789 0.0 0.0 0.0 11.0541 14.9492 -12.3395 4.97333 -0.236513 -0.72613 2.26533 -26.7575 -0.402762 7.41188 -0.0 -0.0 -0.0 0.0 -0.0 16.8107 6.02403 -5.97189 -1.97013 -0.0760908 -0.292758 5.79797 -0.482973 0.842885 -36.0641 0.0 0.0 0.0 0.0 0.0 
624.386 701.296 -1433.48 -89.6521 84.0268 97.6947 1.98055 -0.308636 -2.66935 1.9845 -0.138215 -2.68357 1.99084 0.336674 -2.66596 1.98093 -0.0884327 -2.68567 -17.6629 8.83077 11.0825 -17.4417 10.9147 13.6209 -0.0 0.0 -0.0 8.42838 15.0684 15.5171 4.15609 -21.2062 64.6122 2.61782 -52.354 1.28699 -55.0025 -4.6686 4.91862 -0.501727 21.391 5.6323 -0.0 0.0 -0.0 11.1496 -17.1613 -19.8779 -14.581 -8.97457 -48.7243 0.285494 8.04988 -0.0200886 -44.791 3.47449 -4.38313 7.69522 -9.8785 -73.0254 0.0 0.0 0.0 11.2038 14.8102 -12.3697 4.69565 -0.221649 -0.686138 3.10391 -26.9177 -0.551429 7.58301 -0.0 -0.0 -0.0 0.0 -0.0 16.3287 4.7403 -6.09222 -0.810133 -0.0325095 -0.120073 5.9039 -1.06555 0.856875 -34.2693 0.0 0.0 0.0 0.0 0.0 
615.953 702.746 -1437.04 -100.401 83.7356 107.993 2.11447 -0.375422 -2.54424 2.11805 -0.212819 -2.56295 2.12736 0.235789 -2.56094 2.11825 -0.171486 -2.56605 -17.4962 9.53167 12.3807 -17.1996 11.5126 15.0552 -0.0 0.0 -0.0 8.53164 14.6022 15.7398 2.02703 -21.5752 63.9586 2.57806 -51.9295 1.2556 -54.4968 -4.60737 4.89718 -0.0998482 18.5579 6.91684 -0.0 0.0 -0.0 11.4449 -17.9151 -20.2421 -16.0188 -7.59872 -48.4105 0.26462 7.46821 -0.0172704 -50.7673 4.16197 -4.72243 7.48987 -11.8933 -69.8426 0.0 0.0 0.0 11.1677 14.3521 -12.438 2.82817 -0.126753 -0.415407 3.21543 -27.6245 -0.57608 10.4709 -0.0 -0.0 -0.0 0.0 -0.0 16.0587 6.03373 -6.12846 -1.1773 -0.0466822 -0.174638 6.40143 -1.33053 0.927108 -37.1227 0.0 0.0 0.0 0.0 0.0 
607.989 698.663 -1442.53 -113.081 82.5219 120.616 2.20186 -0.447735 -2.61759 2.20563 -0.280323 -2.64076 2.21828 0.178566 -2.64958 2.20857 -0.241976 -2.64454 -15.6131 9.73075 12.4777 -15.2827 11.3651 14.9898 -0.0 0.0 -0.0 8.14874 14.4923 15.0954 0.817525 -22.8154 64.7704 2.60072 -52.1725 1.27347 -55.6098 -4.74237 4.94367 0.404537 16.153 9.10275 -0.0 0.0 -0.0 11.5776 -16.9139 -20.6694 -15.8893 -8.28356 -48.539 0.241409 6.8196 -0.0143838 -51.9656 4.30384 -4.78173 7.57906 -11.3035 -71.386 0.0 0.0 0.0 11.4942 14.5536 -12.4303 4.95141 -0.235332 -0.722976 0.990415 -29.1976 -0.182422 10.8115 -0.0 -0.0 -0.0 0.0 -0.0 16.2772 4.96551 -6.23053 -2.07295 -0.0797844 -0.308105 11.32 -0.629211 1.61415 -39.6751 0.0 0.0 0.0 0.0 0.0 
599.094 698.361 -1445.18 -118.756 81.7718 126.282 2.15273 -0.516681 -2.58686 2.15639 -0.351083 -2.61447 2.17225 0.106379 -2.63578 2.16269 -0.311082 -2.61953 -14.3043 10.0571 11.0086 -14.0785 12.5472 13.5817 -0.0 0.0 -0.0 7.88767 14.4875 14.6511 0.0815446 -24.1712 65.5113 2.49888 -51.0592 1.19364 -56.2424 -4.81949 4.96892 0.893966 12.8905 10.9945 -0.0 0.0 -0.0 11.7371 -17.0183 -20.9283 -16.361 -7.7105 -48.41 0.243061 6.86584 -0.0145807 -55.0011 4.66843 -4.91857 7.53363 -11.5354 -70.5412 0.0 0.0 0.0 10.4292 13.1182 -12.4539 5.75919 -0.27963 -0.838924 2.76658 -30.2763 -0.51418 13.8681 -0.0 -0.0 -0.0 0.0 -0.0 16.8949 3.85459 -6.26556 -5.19344 -0.178721 -0.77673 14.2001 -2.15928 1.99631 -40.07 0.0 0.0 0.0 0.0 0.0 
591.461 695.061 -1447.07 -122.581 80.9641 129.933 2.18779 -0.477151 -2.55649 2.19138 -0.313564 -2.58164 2.20529 0.136191 -2.59704 2.19598 -0.275531 -2.58598 -13.4258 9.42754 10.9283 -13.1714 11.182 13.2195 -0.0 0.0 -0.0 8.18078 14.9992 15.1037 -1.45934 -23.8087 65.3922 2.2879 -48.5702 1.03242 -56.6159 -4.86514 4.98342 1.09611 10.4787 11.4166 -0.0 0.0 -0.0 11.7097 -17.0186 -20.8802 -16.6692 -7.39861 -48.614 0.228478 6.45748 -0.0128889 -58.1005 5.04751 -5.03813 7.62261 -11.7327 -72.7197 0.0 0.0 0.0 10.2432 13.2418 -12.1422 6.47494 -0.320248 -0.941141 3.92021 -30.8787 -0.73185 16.1865 -0.0 -0.0 -0.0 0.0 -0.0 17.4199 4.09866 -5.85311 -6.59462 -0.214808 -0.988728 18.4035 -1.52402 2.54356 -40.0052 0.0 0.0 0.0 0.0 0.0 
584.122 691.232 -1451.82 -129.197 80.4664 136.444 2.2483 -0.475022 -2.53092 2.25181 -0.313065 -2.55599 2.2655 0.129553 -2.57182 2.25638 -0.278107 -2.56003 -12.4772 9.77796 11.089 -12.2074 11.5209 13.3833 -0.0 0.0 -0.0 7.53927 13.7869 14.111 -3.81838 -25.3111 65.36 2.24084 -47.979 0.997296 -56.5831 -4.86113 4.98216 1.51678 8.86737 13.5978 -0.0 0.0 -0.0 11.9585 -17.0242 -21.3166 -16.257 -6.75543 -48.6604 0.260056 7.34082 -0.0166822 -60.2764 5.31715 -5.1097 7.48525 -12.3373 -70.0149 0.0 0.0 0.0 9.96362 12.8771 -12.3867 6.06605 -0.296887 -0.882808 4.80391 -31.5401 -0.902477 17.9941 -0.0 -0.0 -0.0 0.0 -0.0 16.8337 2.32725 -6.30705 -8.8574 -0.262102 -1.33272 23.486 -3.45855 3.15867 -40.1476 0.0 0.0 0.0 0.0 0.0 
